<?xml version="1.0" standalone="no"?>
<!DOCTYPE svg PUBLIC "-//W3C//DTD SVG 20010904//EN"
 "http://www.w3.org/TR/2001/REC-SVG-20010904/DTD/svg10.dtd">
<svg version="1.0" xmlns="http://www.w3.org/2000/svg"
 width="5000.000000pt" height="2076.000000pt" viewBox="0 0 5000.000000 2076.000000"
 preserveAspectRatio="xMidYMid meet">

<g transform="translate(0.000000,2076.000000) scale(0.100000,-0.100000)"
fill="#000000" stroke="none">
<path d="M789 20746 c-108 -23 -170 -62 -206 -129 -41 -79 -227 -1828 -278
-2617 -41 -636 -61 -1703 -51 -2790 9 -1105 35 -1567 112 -1989 l26 -145 -21
-60 c-92 -267 -151 -835 -211 -2038 -17 -331 -39 -763 -50 -958 -26 -459 -26
-510 -2 -660 45 -274 93 -715 123 -1125 6 -82 13 -406 16 -720 7 -807 -22
-1467 -102 -2319 -111 -1167 -132 -1491 -142 -2186 -14 -1036 61 -1972 218
-2696 29 -129 35 -147 65 -178 62 -64 175 -105 344 -126 331 -40 492 35 611
285 78 163 114 316 150 640 18 158 24 2005 8 2275 -7 118 -12 260 -11 315 4
223 42 729 97 1320 51 547 57 672 62 1358 5 671 2 774 -33 968 -15 86 -15 88
9 165 31 98 52 205 71 354 36 279 40 427 39 1184 -2 849 -13 1253 -50 1871
l-26 430 -9 2830 c-4 1557 -12 2925 -16 3040 -6 172 -3 265 15 510 61 844 85
1384 86 1945 0 541 -18 801 -69 979 -39 136 -143 215 -339 257 -98 22 -352 27
-436 10z"/>
<path d="M35040 19615 c-95 -27 -157 -65 -228 -140 -113 -118 -184 -291 -200
-487 -6 -69 -3 -98 15 -172 63 -254 147 -909 244 -1911 63 -651 111 -1049 137
-1136 25 -82 58 -309 72 -494 6 -77 15 -396 20 -710 10 -559 19 -775 42 -1005
13 -139 12 -511 -3 -745 -13 -198 -27 -171 136 -250 319 -155 555 -164 760
-30 l68 45 57 -35 c182 -111 427 -185 610 -185 152 0 448 58 670 131 200 65
403 182 603 346 51 42 226 211 390 377 251 254 302 310 326 361 331 703 386
837 430 1050 73 359 45 697 -90 1097 -127 376 -272 623 -493 843 -211 208
-455 344 -726 402 -118 25 -647 25 -786 0 -189 -34 -409 -117 -732 -277 -123
-60 -225 -110 -227 -110 -1 0 -5 33 -8 73 -35 400 -93 984 -122 1216 -19 157
-46 396 -60 531 -31 299 -47 400 -85 552 -73 293 -204 509 -365 604 -103 60
-341 91 -455 59z m2545 -3816 c65 -24 184 -131 249 -223 85 -119 153 -281 182
-435 16 -82 14 -115 -17 -304 -62 -376 -110 -505 -253 -683 -272 -338 -720
-604 -1026 -607 -84 -1 -101 2 -145 25 -91 47 -164 146 -199 268 -11 42 -20
195 -35 655 -12 330 -23 652 -27 716 l-6 115 334 187 c344 192 419 230 529
267 154 53 306 60 414 19z"/>
<path d="M42163 19019 c-125 -184 -343 -584 -383 -703 -71 -214 31 -453 305
-714 58 -56 138 -124 176 -151 l70 -49 117 5 c212 8 415 44 600 104 88 29 95
34 141 90 157 194 239 454 229 719 -5 112 -9 133 -38 203 -18 43 -50 105 -72
137 -79 119 -266 238 -463 294 -92 26 -166 39 -430 77 -82 11 -166 23 -186 26
-34 5 -38 2 -66 -38z"/>
<path d="M25004 17581 c-209 -51 -348 -247 -408 -572 -22 -117 -36 -330 -36
-550 0 -177 -2 -195 -40 -385 -68 -335 -127 -668 -164 -917 l-35 -238 -55
-113 c-185 -376 -532 -736 -875 -906 -238 -118 -546 -144 -711 -60 -158 81
-242 275 -271 629 -10 125 0 378 22 521 5 36 16 157 24 270 18 255 41 397 157
970 86 427 91 463 92 580 0 140 -15 196 -78 287 -57 83 -205 166 -349 198 -47
10 -213 7 -279 -6 -88 -16 -195 -71 -267 -135 -70 -63 -62 -42 -185 -494 -186
-682 -262 -1047 -286 -1362 -13 -177 -6 -1064 10 -1198 51 -436 170 -738 395
-1000 195 -228 481 -374 830 -424 229 -33 545 -30 775 9 387 66 742 239 1032
504 31 28 59 51 62 51 3 0 6 -15 6 -34 0 -60 31 -278 51 -355 25 -97 62 -178
102 -219 73 -77 218 -122 391 -123 280 -1 506 102 588 269 l33 67 -1 330 c0
330 -7 432 -45 707 l-20 147 21 333 c42 676 78 1017 130 1252 75 337 95 550
95 1036 0 464 -9 565 -60 677 -39 85 -113 168 -184 207 -118 64 -317 84 -467
47z"/>
<path d="M28670 17265 c-210 -39 -403 -209 -478 -418 -21 -59 -26 -90 -26
-172 0 -91 4 -110 38 -205 97 -269 125 -356 132 -407 5 -43 -5 -124 -50 -386
-50 -298 -62 -395 -111 -942 -30 -335 -67 -695 -82 -800 -26 -176 -28 -214
-28 -515 0 -360 9 -467 56 -649 49 -188 142 -349 244 -418 88 -60 143 -77 266
-81 187 -7 333 40 476 152 141 111 216 259 215 426 0 41 -7 185 -16 320 -27
403 -32 786 -13 985 9 94 26 310 37 480 19 279 24 320 51 415 126 437 290 676
543 790 110 49 188 65 336 65 123 0 143 -3 220 -29 100 -34 154 -60 271 -132
100 -62 146 -110 189 -193 90 -179 156 -602 180 -1151 11 -257 12 -1329 1
-1425 -16 -145 89 -324 237 -403 104 -56 199 -75 362 -76 126 -1 154 2 216 22
201 66 351 295 411 627 26 147 27 664 2 815 -10 58 -45 293 -78 522 -33 230
-69 471 -80 535 -11 65 -36 225 -56 356 -40 269 -54 340 -91 469 -129 448
-381 747 -799 947 -308 148 -606 217 -982 228 -316 9 -470 -16 -730 -122 -75
-31 -139 -52 -143 -48 -4 4 -53 64 -108 133 -141 177 -215 244 -297 269 -87
27 -221 34 -315 16z"/>
<path d="M6437 17009 c-257 -15 -339 -43 -560 -191 -49 -33 -131 -95 -182
-139 -52 -43 -96 -79 -99 -79 -2 0 -59 65 -125 144 -111 131 -127 146 -193
180 -79 39 -194 66 -286 66 -65 0 -195 -29 -264 -59 -196 -84 -360 -280 -388
-463 -17 -112 -4 -169 103 -449 30 -79 67 -193 83 -253 l28 -109 -23 -206
c-45 -415 -90 -880 -100 -1041 -37 -570 22 -1564 114 -1927 32 -126 91 -249
151 -313 91 -98 197 -126 438 -117 382 14 529 124 592 443 14 67 18 135 18
274 -1 207 -23 389 -77 633 l-32 142 7 255 c19 693 56 989 164 1318 49 150
113 284 175 369 87 117 168 177 338 248 61 25 66 26 155 15 198 -24 387 -78
492 -141 65 -39 80 -64 167 -284 69 -171 119 -343 157 -535 34 -175 46 -271
60 -500 6 -96 17 -209 25 -250 61 -316 61 -625 0 -1260 -50 -529 -51 -595 -3
-697 54 -115 210 -231 373 -278 72 -21 112 -26 200 -26 252 -1 400 93 520 331
105 208 145 471 126 832 -9 165 -9 251 4 458 18 301 19 624 4 755 -10 87 -9
103 16 222 105 507 340 844 676 970 149 56 293 77 529 77 190 0 212 -2 302
-26 173 -47 326 -130 480 -262 l76 -65 12 -73 c25 -156 64 -330 110 -493 l48
-170 32 -414 c49 -647 94 -890 206 -1114 123 -245 261 -329 517 -314 251 15
487 139 563 294 25 50 27 65 26 157 -3 172 -49 573 -96 831 -29 159 -167 1120
-191 1325 -8 74 -15 160 -15 190 0 51 -7 67 -91 215 -98 171 -244 395 -316
485 -66 81 -209 225 -283 286 -320 258 -761 375 -1359 361 -227 -5 -308 -17
-546 -77 -258 -66 -485 -149 -710 -260 -226 -111 -363 -209 -452 -322 -11 -16
-24 -28 -27 -28 -3 0 -26 40 -50 89 -106 210 -240 421 -330 518 -43 47 -97 84
-258 180 -276 164 -377 217 -486 253 -90 29 -101 30 -250 29 -87 -1 -219 -6
-295 -10z"/>
<path d="M46294 16849 c-254 -23 -487 -238 -539 -498 -22 -105 -12 -167 61
-392 29 -91 61 -205 70 -252 l17 -86 -72 -333 c-65 -304 -78 -386 -151 -953
-45 -341 -94 -694 -111 -785 -45 -251 -60 -416 -60 -685 0 -352 30 -535 117
-712 85 -175 193 -260 365 -287 151 -25 295 0 441 76 133 69 239 181 291 310
22 52 22 61 23 673 0 541 3 633 18 725 9 58 37 278 60 490 l44 385 47 130
c129 354 265 559 444 665 138 82 279 115 459 107 133 -5 204 -26 344 -98 99
-52 226 -145 261 -191 81 -108 119 -256 158 -623 39 -356 31 -1159 -16 -1883
-8 -117 -17 -217 -19 -221 -8 -12 24 -121 51 -175 33 -65 120 -156 183 -190
189 -103 490 -122 649 -42 73 37 133 95 196 190 63 96 97 170 131 286 42 142
55 253 65 550 9 262 8 298 -11 450 -11 91 -34 305 -50 475 -17 171 -42 398
-55 505 -13 107 -34 283 -45 390 -25 236 -42 342 -80 480 -112 411 -327 695
-688 907 -372 219 -903 340 -1332 304 -179 -16 -302 -45 -511 -124 l-66 -25
-66 93 c-103 144 -186 244 -240 286 -84 67 -214 93 -383 78z"/>
<path d="M18493 16771 c-125 -20 -304 -93 -421 -173 -26 -17 -48 -32 -49 -33
-2 -1 -14 -62 -28 -136 -46 -253 -95 -399 -330 -995 -68 -172 -226 -611 -352
-977 l-228 -666 -120 121 c-66 66 -156 147 -200 179 -44 32 -97 71 -117 86
-51 38 -398 363 -533 498 -177 177 -337 383 -605 775 -302 444 -468 617 -690
724 -83 40 -87 41 -191 41 -104 0 -107 -1 -191 -42 -173 -86 -330 -284 -384
-484 -11 -41 -17 -102 -17 -166 0 -121 -3 -115 159 -374 129 -207 227 -347
423 -609 161 -215 285 -347 515 -545 156 -134 283 -270 407 -434 74 -98 95
-118 174 -169 110 -71 265 -205 479 -411 89 -86 203 -196 254 -244 l93 -89
-12 -36 c-24 -76 -155 -353 -350 -743 -208 -417 -310 -632 -360 -756 -36 -92
-89 -177 -374 -608 -342 -518 -448 -705 -476 -840 -23 -114 18 -245 108 -345
171 -191 494 -289 691 -211 85 34 157 85 264 189 219 211 396 487 578 899 76
171 234 471 596 1129 252 460 339 626 375 717 11 29 35 70 53 92 135 164 273
446 382 775 38 117 61 166 116 255 95 151 234 433 292 590 58 158 111 347 132
475 23 136 224 641 448 1127 142 308 173 405 186 590 17 227 13 381 -11 454
-62 191 -176 307 -350 355 -64 18 -263 26 -336 15z"/>
<path d="M42110 16495 c-103 -22 -222 -88 -302 -167 -38 -37 -75 -83 -83 -102
-22 -52 -120 -412 -164 -601 -107 -462 -202 -1045 -245 -1510 -66 -707 -34
-1154 103 -1430 112 -225 271 -329 506 -329 173 0 278 44 400 168 89 90 142
181 193 326 l29 85 -14 90 c-22 142 -11 416 23 575 24 110 27 151 30 340 3
221 13 311 78 685 14 78 30 199 36 270 22 268 32 327 96 610 36 160 69 308 74
330 5 22 12 119 15 215 l7 175 -68 66 c-117 112 -229 171 -386 204 -86 18
-241 18 -328 0z"/>
<path d="M10053 6608 c-17 -6 -45 -25 -61 -42 -28 -29 -33 -46 -76 -284 -26
-142 -46 -283 -46 -322 0 -74 -37 -386 -69 -579 -11 -64 -22 -181 -26 -261 -7
-161 -29 -349 -46 -399 -9 -26 -8 -70 6 -202 16 -150 17 -184 5 -294 -22 -213
4 -465 60 -581 71 -147 187 -187 341 -118 59 27 139 100 139 127 0 8 -15 34
-34 58 -47 62 -92 155 -116 241 -24 85 -43 328 -29 386 25 107 32 201 39 577
l7 410 33 155 c22 109 33 189 35 270 3 97 11 150 55 334 28 120 57 257 64 305
15 99 9 117 -56 176 -56 51 -146 68 -225 43z"/>
<path d="M6912 6499 c-96 -49 -113 -175 -54 -411 44 -179 65 -313 112 -713 22
-192 49 -404 60 -470 25 -152 94 -864 94 -960 0 -16 -2 -106 -4 -200 l-3 -170
64 -22 c35 -12 84 -22 108 -23 53 0 123 31 145 65 l16 25 68 -34 c178 -90 328
-92 553 -5 126 49 246 135 391 282 135 136 129 127 239 369 115 253 105 504
-33 787 -86 179 -189 267 -380 328 -113 35 -113 35 -258 30 -117 -4 -162 -10
-233 -31 -124 -37 -232 -93 -364 -188 l-52 -38 -6 33 c-3 17 -16 167 -30 332
-13 165 -33 347 -44 405 -11 58 -26 164 -35 235 -25 212 -60 301 -142 358 -58
41 -150 48 -212 16z m1271 -1492 c94 -56 171 -158 212 -286 21 -65 16 -176
-14 -313 -35 -154 -82 -223 -260 -377 -116 -101 -159 -125 -296 -160 -98 -26
-196 -3 -247 57 -54 65 -71 118 -80 252 -16 258 -39 556 -44 571 -3 13 21 32
98 76 300 174 402 216 514 210 55 -3 83 -10 117 -30z"/>
<path d="M15635 5484 c-48 -25 -63 -43 -81 -96 l-16 -49 -41 24 c-86 50 -152
67 -304 78 -171 13 -297 2 -431 -37 -388 -113 -774 -393 -895 -651 -40 -87
-48 -206 -22 -334 20 -103 38 -146 133 -322 73 -136 77 -141 171 -219 53 -44
134 -106 180 -137 l84 -56 156 1 c128 1 179 6 282 28 219 46 419 124 568 220
39 25 71 42 71 37 0 -24 -51 -499 -55 -520 -3 -13 -10 -78 -15 -145 -13 -178
-66 -316 -181 -469 -87 -115 -126 -138 -334 -193 -141 -37 -196 -47 -255 -47
-143 1 -346 54 -459 119 -25 15 -114 83 -198 151 -83 67 -167 132 -186 143
-54 32 -125 36 -180 12 -87 -38 -140 -166 -102 -246 19 -39 38 -56 261 -233
148 -117 155 -121 305 -181 228 -91 284 -104 478 -110 226 -6 406 19 619 85
237 74 477 391 566 748 47 187 95 679 101 1020 3 127 7 245 10 264 4 18 10
119 15 225 5 105 16 250 25 321 11 89 15 185 13 305 -3 198 -13 230 -78 262
-45 23 -163 24 -205 2z m-381 -415 c128 -33 161 -47 214 -86 l32 -24 0 -102
c0 -56 -5 -169 -12 -250 l-11 -148 -66 -82 c-102 -127 -158 -163 -352 -230
-198 -68 -255 -83 -381 -98 l-97 -11 -60 46 c-79 61 -179 187 -236 300 -43 82
-47 96 -43 146 5 68 36 135 99 210 47 57 185 167 287 228 56 34 218 80 393
112 57 10 106 19 108 19 2 1 59 -13 125 -30z"/>
<path d="M11863 5333 c-67 -14 -80 -21 -165 -93 -173 -143 -299 -292 -354
-417 -51 -115 -66 -271 -43 -440 49 -361 282 -693 604 -860 96 -50 275 -89
363 -79 78 9 346 80 440 116 69 27 86 38 111 73 44 65 111 203 142 295 117
346 52 771 -168 1105 -70 105 -221 204 -411 267 -154 51 -367 64 -519 33z
m419 -352 c220 -92 328 -259 359 -557 11 -116 8 -208 -13 -294 -12 -52 -79
-195 -106 -227 -10 -11 -57 -34 -103 -49 -74 -25 -99 -28 -209 -29 -124 0
-125 0 -204 38 -201 96 -325 328 -326 608 0 257 120 455 324 530 76 28 180 20
278 -20z"/>
<path d="M5120 2919 c-239 -4 -498 -12 -574 -18 l-140 -11 -39 -37 c-64 -63
-84 -116 -79 -210 3 -48 55 -98 125 -118 53 -15 76 -15 339 1 186 11 292 21
309 30 60 30 434 27 939 -8 91 -6 226 -12 300 -12 155 -1 175 6 210 73 46 92
34 187 -31 246 -25 22 -49 35 -67 35 -15 0 -162 9 -327 20 -165 11 -352 19
-415 18 -63 -1 -311 -5 -550 -9z"/>
</g>
</svg>
